# xmcd
#
# Track frame offsets:
#	150
#	13859
#	28940
#	44067
#	58269
#	71882
#	86127
#	99395
#	112085
#	125010
#	138040
#	153624
#	166138
#	179941
#	192419
#	206948
#	219624
#	234413
#
# Disc length: 3294 seconds
#
# Revision: 0
# Processed by: cddbd v1.5PL3 Copyright (c) Steve Scherf et al.
# Submitted via: dBpowerAMP V4.0
#
DISCID=210cdc12
DTITLE=Casey Bill Weldon - The Essential Casey Bill Weldon [CD2]
DYEAR=1900
DGENRE=
TTITLE0=I Believe I'll Make a Change
TTITLE1=Blues Everywhere I Go
TTITLE2=I'se Just a Bad Luck Man
TTITLE3=You Just As Well Let Her Go
TTITLE4=Big Katy Adam
TTITLE5=Please Come on Down to My House  (with The Washboard Rhythm Kings)
TTITLE6=Round and Round
TTITLE7=Do You Think That's Right?
TTITLE8=Casey Bill's New W.P.A.
TTITLE9=You Shouldn't Do That
TTITLE10=Way Down in Louisiana
TTITLE11=You Gotta Do Your Duty
TTITLE12=Did You Mean What You Said?
TTITLE13=Arlena (with The Washboard Rhythm Kings)
TTITLE14=Can't You Remember?
TTITLE15=Go Ahead, Buddy
TTITLE16=I Believe You're Cheatin' on Me
TTITLE17=Spider Blues
EXTD=
EXTT0=
EXTT1=
EXTT2=
EXTT3=
EXTT4=
EXTT5=
EXTT6=
EXTT7=
EXTT8=
EXTT9=
EXTT10=
EXTT11=
EXTT12=
EXTT13=
EXTT14=
EXTT15=
EXTT16=
EXTT17=
PLAYORDER=
